<svg preserveAspectRatio="none" width="100%" height="100%" overflow="visible" style="display: block;" viewBox="0 0 130.691 13.112" fill="none" xmlns="http://www.w3.org/2000/svg">
<g id="Tagline">
<path id="Vector" d="M129.404 10.549V2.409H130.691V10.549H129.404Z" fill="var(--fill-0, white)"/>
<path id="Vector_2" d="M120.68 10.549L123.518 2.409H125.168L128.017 10.549H126.664L126.037 8.723H122.66L122.033 10.549H120.68ZM123.045 7.579H125.652L124.354 3.784L123.045 7.579Z" fill="var(--fill-0, white)"/>
<path id="Vector_3" d="M113.927 10.659C113.289 10.659 112.75 10.516 112.31 10.23C111.877 9.944 111.547 9.57 111.32 9.108C111.1 8.646 110.99 8.15467 110.99 7.634C110.99 7.11333 111.1 6.622 111.32 6.16C111.547 5.698 111.877 5.324 112.31 5.038C112.75 4.752 113.289 4.609 113.927 4.609C114.557 4.609 115.089 4.752 115.522 5.038C115.962 5.324 116.292 5.698 116.512 6.16C116.739 6.622 116.853 7.11333 116.853 7.634C116.853 8.15467 116.739 8.646 116.512 9.108C116.292 9.57 115.962 9.944 115.522 10.23C115.089 10.516 114.557 10.659 113.927 10.659ZM113.927 9.592C114.286 9.592 114.587 9.50033 114.829 9.317C115.078 9.13367 115.265 8.89167 115.39 8.591C115.522 8.29033 115.588 7.97133 115.588 7.634C115.588 7.28933 115.522 6.97033 115.39 6.677C115.265 6.37633 115.078 6.13433 114.829 5.951C114.587 5.76767 114.286 5.676 113.927 5.676C113.567 5.676 113.263 5.76767 113.014 5.951C112.764 6.13433 112.577 6.37633 112.453 6.677C112.328 6.97033 112.266 7.28933 112.266 7.634C112.266 7.97133 112.328 8.29033 112.453 8.591C112.577 8.89167 112.764 9.13367 113.014 9.317C113.263 9.50033 113.567 9.592 113.927 9.592Z" fill="var(--fill-0, white)"/>
<path id="Vector_4" d="M106.17 3.861L105.015 1.87H106.247L107.171 3.85L106.17 3.861ZM106.302 4.609C106.668 4.609 106.973 4.66767 107.215 4.785C107.464 4.90233 107.662 5.038 107.809 5.192C107.955 5.346 108.062 5.478 108.128 5.588H108.194V4.719H109.448V10.549H108.194V9.68H108.128C108.062 9.79 107.955 9.922 107.809 10.076C107.662 10.23 107.464 10.3657 107.215 10.483C106.973 10.6003 106.668 10.659 106.302 10.659C105.862 10.659 105.477 10.5747 105.147 10.406C104.824 10.23 104.553 9.999 104.333 9.713C104.113 9.41967 103.948 9.09333 103.838 8.734C103.735 8.37467 103.684 8.008 103.684 7.634C103.684 7.26 103.735 6.89333 103.838 6.534C103.948 6.17467 104.113 5.852 104.333 5.566C104.553 5.27267 104.824 5.04167 105.147 4.873C105.477 4.697 105.862 4.609 106.302 4.609ZM106.577 5.654C106.217 5.654 105.917 5.753 105.675 5.951C105.433 6.14167 105.249 6.38733 105.125 6.688C105.007 6.98867 104.949 7.304 104.949 7.634C104.949 7.964 105.007 8.27933 105.125 8.58C105.249 8.88067 105.433 9.13 105.675 9.328C105.917 9.51867 106.217 9.614 106.577 9.614C106.936 9.614 107.233 9.51867 107.468 9.328C107.71 9.13 107.889 8.88067 108.007 8.58C108.131 8.27933 108.194 7.964 108.194 7.634C108.194 7.304 108.131 6.98867 108.007 6.688C107.889 6.38733 107.71 6.14167 107.468 5.951C107.233 5.753 106.936 5.654 106.577 5.654Z" fill="var(--fill-0, white)"/>
<path id="Vector_5" d="M99.2772 10.549L97.0882 4.719H98.3752L99.9592 9.086L101.51 4.719H102.808L100.608 10.549H99.2772Z" fill="var(--fill-0, white)"/>
<path id="Vector_6" d="M92.5328 10.659C92.0708 10.659 91.7004 10.5747 91.4218 10.406C91.1431 10.2373 90.9414 10.0137 90.8168 9.735C90.6994 9.449 90.6408 9.141 90.6408 8.811V5.731H89.6178V4.719H90.6408V3.267H91.8948V4.719H93.2588V5.731H91.8948V8.789C91.8948 9.339 92.1991 9.614 92.8078 9.614C92.9618 9.614 93.1048 9.603 93.2368 9.581C93.3688 9.559 93.4348 9.548 93.4348 9.548V10.571C93.4348 10.571 93.3431 10.5857 93.1598 10.615C92.9838 10.6443 92.7748 10.659 92.5328 10.659Z" fill="var(--fill-0, white)"/>
<path id="Vector_7" d="M84.0898 3.927L85.4538 2.046H86.4878L87.8518 3.927H86.7848L85.9708 2.761L85.1568 3.927H84.0898ZM86.0148 10.659C85.5308 10.659 85.1092 10.5747 84.7498 10.406C84.3905 10.23 84.0935 9.999 83.8588 9.713C83.6315 9.41966 83.4592 9.09333 83.3418 8.734C83.2318 8.37466 83.1768 8.008 83.1768 7.634C83.1768 7.26733 83.2318 6.90433 83.3418 6.545C83.4592 6.18566 83.6315 5.85933 83.8588 5.566C84.0862 5.27266 84.3722 5.04166 84.7168 4.873C85.0688 4.697 85.4868 4.609 85.9708 4.609C86.4768 4.609 86.9278 4.72633 87.3238 4.961C87.7198 5.18833 88.0278 5.52933 88.2478 5.984C88.4752 6.43133 88.5888 6.98867 88.5888 7.656V7.997H84.4418C84.4712 8.44433 84.6215 8.82933 84.8928 9.152C85.1642 9.47466 85.5382 9.636 86.0148 9.636C86.2862 9.636 86.5098 9.592 86.6858 9.504C86.8618 9.40866 86.9975 9.30233 87.0928 9.185C87.1955 9.06766 87.2652 8.965 87.3018 8.877C87.3385 8.789 87.3568 8.745 87.3568 8.745H88.5228C88.5228 8.745 88.5045 8.811 88.4678 8.943C88.4312 9.06767 88.3652 9.22533 88.2698 9.416C88.1745 9.60666 88.0315 9.79733 87.8408 9.988C87.6575 10.1787 87.4155 10.34 87.1148 10.472C86.8215 10.5967 86.4548 10.659 86.0148 10.659ZM84.4528 7.117H87.3678C87.3458 6.60366 87.1955 6.226 86.9168 5.984C86.6382 5.742 86.3192 5.621 85.9598 5.621C85.5418 5.621 85.1972 5.75667 84.9258 6.028C84.6545 6.292 84.4968 6.655 84.4528 7.117ZM85.9708 13.112C85.7435 13.112 85.5565 13.035 85.4098 12.881C85.2705 12.7343 85.2008 12.5583 85.2008 12.353C85.2008 12.1403 85.2705 11.957 85.4098 11.803C85.5565 11.6563 85.7435 11.583 85.9708 11.583C86.1835 11.583 86.3632 11.6563 86.5098 11.803C86.6565 11.957 86.7298 12.1403 86.7298 12.353C86.7298 12.5583 86.6565 12.7343 86.5098 12.881C86.3632 13.035 86.1835 13.112 85.9708 13.112Z" fill="var(--fill-0, white)"/>
<path id="Vector_8" d="M80.8846 3.718C80.6572 3.718 80.4702 3.641 80.3235 3.487C80.1769 3.333 80.1035 3.15333 80.1035 2.948C80.1035 2.73533 80.1769 2.55566 80.3235 2.409C80.4702 2.255 80.6572 2.178 80.8846 2.178C81.1119 2.178 81.2989 2.255 81.4455 2.409C81.5995 2.55566 81.6766 2.73533 81.6766 2.948C81.6766 3.16066 81.5995 3.344 81.4455 3.498C81.2989 3.64466 81.1119 3.718 80.8846 3.718ZM80.2685 10.549V4.719H81.5225V10.549H80.2685Z" fill="var(--fill-0, white)"/>
<path id="Vector_9" d="M74.4853 10.549L71.6473 2.409H73.0003L75.3213 9.174L77.6313 2.409H78.9843L76.1353 10.549H74.4853Z" fill="var(--fill-0, white)"/>
<path id="Vector_10" d="M65.3593 10.659C64.868 10.659 64.439 10.5747 64.0723 10.406C63.7057 10.23 63.4013 9.999 63.1593 9.713C62.9173 9.41967 62.734 9.09333 62.6093 8.734C62.492 8.37467 62.4333 8.008 62.4333 7.634C62.4333 7.26 62.492 6.89333 62.6093 6.534C62.734 6.17467 62.9173 5.852 63.1593 5.566C63.4013 5.27267 63.7057 5.04167 64.0723 4.873C64.439 4.697 64.868 4.609 65.3593 4.609C65.8433 4.609 66.243 4.68233 66.5583 4.829C66.881 4.96833 67.1377 5.14433 67.3283 5.357C67.519 5.56967 67.662 5.78233 67.7573 5.995C67.8527 6.20767 67.9113 6.38733 67.9333 6.534C67.9627 6.68067 67.9773 6.754 67.9773 6.754H66.7893C66.7893 6.754 66.771 6.699 66.7343 6.589C66.705 6.479 66.6427 6.35067 66.5473 6.204C66.452 6.05733 66.309 5.929 66.1183 5.819C65.935 5.709 65.6857 5.654 65.3703 5.654C64.9963 5.654 64.6847 5.74933 64.4353 5.94C64.186 6.12333 63.9953 6.36533 63.8633 6.666C63.7387 6.96667 63.6763 7.28933 63.6763 7.634C63.6763 7.97867 63.7387 8.30133 63.8633 8.602C63.9953 8.90267 64.186 9.14833 64.4353 9.339C64.6847 9.52233 64.9963 9.614 65.3703 9.614C65.6857 9.614 65.935 9.559 66.1183 9.449C66.309 9.339 66.452 9.21067 66.5473 9.064C66.6427 8.91733 66.705 8.789 66.7343 8.679C66.771 8.569 66.7893 8.514 66.7893 8.514H67.9773C67.9773 8.514 67.9627 8.58733 67.9333 8.734C67.9113 8.88067 67.8527 9.06033 67.7573 9.273C67.662 9.48567 67.519 9.69833 67.3283 9.911C67.1377 10.1237 66.881 10.3033 66.5583 10.45C66.243 10.5893 65.8433 10.659 65.3593 10.659Z" fill="var(--fill-0, white)"/>
<path id="Vector_11" d="M58.5701 1.991L57.5691 1.98L58.4931 0H59.7251L58.5701 1.991ZM58.0751 3.927C57.7084 3.927 57.4078 3.872 57.1731 3.762C56.9458 3.652 56.7661 3.51633 56.6341 3.355C56.5094 3.19367 56.4178 3.03233 56.3591 2.871C56.3004 2.70967 56.2638 2.57767 56.2491 2.475C56.2418 2.365 56.2381 2.31 56.2381 2.31H57.1181C57.1181 2.31 57.1254 2.354 57.1401 2.442C57.1621 2.52267 57.2024 2.618 57.2611 2.728C57.3198 2.838 57.4114 2.937 57.5361 3.025C57.6681 3.10567 57.8478 3.146 58.0751 3.146C58.2951 3.146 58.4674 3.10567 58.5921 3.025C58.7241 2.937 58.8194 2.838 58.8781 2.728C58.9441 2.618 58.9844 2.52267 58.9991 2.442C59.0138 2.354 59.0211 2.31 59.0211 2.31H59.9011C59.9011 2.31 59.8938 2.365 59.8791 2.475C59.8718 2.57767 59.8388 2.70967 59.7801 2.871C59.7288 3.03233 59.6371 3.19367 59.5051 3.355C59.3731 3.51633 59.1898 3.652 58.9551 3.762C58.7278 3.872 58.4344 3.927 58.0751 3.927ZM57.7451 4.609C58.1118 4.609 58.4161 4.66767 58.6581 4.785C58.9074 4.90233 59.1054 5.038 59.2521 5.192C59.3988 5.346 59.5051 5.478 59.5711 5.588H59.6371V4.719H60.8911V10.549H59.6371V9.68H59.5711C59.5051 9.79 59.3988 9.922 59.2521 10.076C59.1054 10.23 58.9074 10.3657 58.6581 10.483C58.4161 10.6003 58.1118 10.659 57.7451 10.659C57.3051 10.659 56.9201 10.5747 56.5901 10.406C56.2674 10.23 55.9961 9.999 55.7761 9.713C55.5561 9.41967 55.3911 9.09333 55.2811 8.734C55.1784 8.37467 55.1271 8.008 55.1271 7.634C55.1271 7.26 55.1784 6.89333 55.2811 6.534C55.3911 6.17467 55.5561 5.852 55.7761 5.566C55.9961 5.27267 56.2674 5.04167 56.5901 4.873C56.9201 4.697 57.3051 4.609 57.7451 4.609ZM58.0201 5.654C57.6608 5.654 57.3601 5.753 57.1181 5.951C56.8761 6.14167 56.6928 6.38733 56.5681 6.688C56.4508 6.98867 56.3921 7.304 56.3921 7.634C56.3921 7.964 56.4508 8.27933 56.5681 8.58C56.6928 8.88067 56.8761 9.13 57.1181 9.328C57.3601 9.51867 57.6608 9.614 58.0201 9.614C58.3794 9.614 58.6764 9.51867 58.9111 9.328C59.1531 9.13 59.3328 8.88067 59.4501 8.58C59.5748 8.27933 59.6371 7.964 59.6371 7.634C59.6371 7.304 59.5748 6.98867 59.4501 6.688C59.3328 6.38733 59.1531 6.14167 58.9111 5.951C58.6764 5.753 58.3794 5.654 58.0201 5.654Z" fill="var(--fill-0, white)"/>
<path id="Vector_12" d="M51.7087 10.659C51.2467 10.659 50.8653 10.5967 50.5647 10.472C50.2713 10.34 50.0367 10.1823 49.8607 9.999C49.6847 9.80833 49.5527 9.61767 49.4647 9.427C49.384 9.23633 49.3327 9.07867 49.3107 8.954C49.2887 8.822 49.2777 8.756 49.2777 8.756H50.4987C50.4987 8.756 50.5097 8.80367 50.5317 8.899C50.561 8.987 50.616 9.08967 50.6967 9.207C50.7773 9.32433 50.902 9.43067 51.0707 9.526C51.2393 9.614 51.463 9.658 51.7417 9.658C52.079 9.658 52.3283 9.581 52.4897 9.427C52.6583 9.273 52.7427 9.097 52.7427 8.899C52.7427 8.70833 52.673 8.558 52.5337 8.448C52.3943 8.338 52.1963 8.25367 51.9397 8.195L51.1477 8.019C50.8397 7.94567 50.55 7.84667 50.2787 7.722C50.0147 7.59 49.7983 7.41767 49.6297 7.205C49.4683 6.985 49.3877 6.70267 49.3877 6.358C49.3877 5.852 49.5783 5.434 49.9597 5.104C50.341 4.774 50.8543 4.609 51.4997 4.609C51.9177 4.609 52.2623 4.66767 52.5337 4.785C52.8123 4.90233 53.0323 5.049 53.1937 5.225C53.355 5.39367 53.476 5.566 53.5567 5.742C53.6373 5.91067 53.6887 6.05367 53.7107 6.171C53.74 6.281 53.7547 6.336 53.7547 6.336H52.5777C52.5777 6.336 52.5667 6.29933 52.5447 6.226C52.5227 6.15267 52.475 6.06833 52.4017 5.973C52.3283 5.87033 52.2183 5.78233 52.0717 5.709C51.9323 5.62833 51.7417 5.588 51.4997 5.588C51.1697 5.588 50.9313 5.66133 50.7847 5.808C50.638 5.95467 50.5647 6.11233 50.5647 6.281C50.5647 6.457 50.6343 6.59633 50.7737 6.699C50.9203 6.79433 51.111 6.86767 51.3457 6.919L52.1267 7.095C52.6473 7.21233 53.0763 7.40667 53.4137 7.678C53.751 7.942 53.9197 8.327 53.9197 8.833C53.9197 9.17033 53.8317 9.47833 53.6557 9.757C53.487 10.0283 53.2377 10.2483 52.9077 10.417C52.5777 10.5783 52.178 10.659 51.7087 10.659Z" fill="var(--fill-0, white)"/>
<path id="Vector_13" d="M40.3179 10.549V4.719H41.5719V5.566H41.6379C41.6893 5.46333 41.7773 5.33867 41.9019 5.192C42.0266 5.038 42.1989 4.90233 42.4189 4.785C42.6463 4.66767 42.9323 4.609 43.2769 4.609C43.7096 4.609 44.0726 4.708 44.3659 4.906C44.6593 5.104 44.8793 5.368 45.0259 5.698C45.1799 6.028 45.2569 6.391 45.2569 6.787V10.549H44.0029V6.919C44.0029 6.567 43.9039 6.27 43.7059 6.028C43.5153 5.786 43.2293 5.665 42.8479 5.665C42.5473 5.665 42.3016 5.742 42.1109 5.896C41.9276 6.04267 41.7919 6.237 41.7039 6.479C41.6159 6.71367 41.5719 6.96667 41.5719 7.238V10.549H40.3179Z" fill="var(--fill-0, white)"/>
<path id="Vector_14" d="M35.4754 3.96V3.597C35.4754 3.52367 35.4901 3.44667 35.5194 3.366C35.5561 3.28533 35.6221 3.223 35.7174 3.179L35.8714 3.102C36.2014 2.93333 36.3664 2.75 36.3664 2.552C36.3664 2.45667 36.3261 2.36867 36.2454 2.288C36.1721 2.20733 36.0584 2.167 35.9044 2.167C35.7651 2.167 35.6624 2.2 35.5964 2.266C35.5304 2.32467 35.4864 2.39067 35.4644 2.464C35.4424 2.53733 35.4314 2.59233 35.4314 2.629H34.6284C34.6284 2.43833 34.6688 2.255 34.7494 2.079C34.8374 1.903 34.9768 1.75633 35.1674 1.639C35.3581 1.52167 35.6001 1.463 35.8934 1.463C36.2968 1.463 36.6158 1.56933 36.8504 1.782C37.0924 1.98733 37.2134 2.23667 37.2134 2.53C37.2134 2.96267 36.9164 3.32567 36.3224 3.619L36.2674 3.641V3.96H35.4754ZM35.5414 4.609C35.9081 4.609 36.2124 4.66767 36.4544 4.785C36.7038 4.90233 36.9018 5.038 37.0484 5.192C37.1951 5.346 37.3014 5.478 37.3674 5.588H37.4334V4.719H38.6874V10.549H37.4334V9.68H37.3674C37.3014 9.79 37.1951 9.922 37.0484 10.076C36.9018 10.23 36.7038 10.3657 36.4544 10.483C36.2124 10.6003 35.9081 10.659 35.5414 10.659C35.1014 10.659 34.7164 10.5747 34.3864 10.406C34.0638 10.23 33.7924 9.999 33.5724 9.713C33.3524 9.41967 33.1874 9.09333 33.0774 8.734C32.9748 8.37467 32.9234 8.008 32.9234 7.634C32.9234 7.26 32.9748 6.89333 33.0774 6.534C33.1874 6.17467 33.3524 5.852 33.5724 5.566C33.7924 5.27267 34.0638 5.04167 34.3864 4.873C34.7164 4.697 35.1014 4.609 35.5414 4.609ZM35.8164 5.654C35.4571 5.654 35.1564 5.753 34.9144 5.951C34.6724 6.14167 34.4891 6.38733 34.3644 6.688C34.2471 6.98867 34.1884 7.304 34.1884 7.634C34.1884 7.964 34.2471 8.27934 34.3644 8.58C34.4891 8.88067 34.6724 9.13 34.9144 9.328C35.1564 9.51867 35.4571 9.614 35.8164 9.614C36.1758 9.614 36.4728 9.51867 36.7074 9.328C36.9494 9.13 37.1291 8.88067 37.2464 8.58C37.3711 8.27934 37.4334 7.964 37.4334 7.634C37.4334 7.304 37.3711 6.98867 37.2464 6.688C37.1291 6.38733 36.9494 6.14167 36.7074 5.951C36.4728 5.753 36.1758 5.654 35.8164 5.654Z" fill="var(--fill-0, white)"/>
<path id="Vector_15" d="M28.9596 10.659C28.5856 10.659 28.274 10.6003 28.0246 10.483C27.7826 10.3657 27.5883 10.23 27.4416 10.076C27.3023 9.922 27.196 9.79 27.1226 9.68H27.0566V10.549H25.8026V2.189H27.0566V5.588H27.1226C27.196 5.478 27.3023 5.346 27.4416 5.192C27.5883 5.038 27.7826 4.90233 28.0246 4.785C28.274 4.66767 28.5856 4.609 28.9596 4.609C29.3923 4.609 29.7736 4.697 30.1036 4.873C30.4336 5.04167 30.705 5.27267 30.9176 5.566C31.1376 5.852 31.299 6.17467 31.4016 6.534C31.5116 6.89333 31.5666 7.26 31.5666 7.634C31.5666 8.008 31.5116 8.37467 31.4016 8.734C31.299 9.09333 31.1376 9.41967 30.9176 9.713C30.705 9.999 30.4336 10.23 30.1036 10.406C29.7736 10.5747 29.3923 10.659 28.9596 10.659ZM28.6736 9.614C29.0403 9.614 29.341 9.51867 29.5757 9.328C29.8177 9.13 29.9973 8.88067 30.1146 8.58C30.2393 8.27933 30.3016 7.964 30.3016 7.634C30.3016 7.304 30.2393 6.98867 30.1146 6.688C29.9973 6.38733 29.8177 6.14167 29.5757 5.951C29.341 5.753 29.0403 5.654 28.6736 5.654C28.3143 5.654 28.0136 5.753 27.7716 5.951C27.537 6.14167 27.3573 6.38733 27.2326 6.688C27.1153 6.98867 27.0566 7.304 27.0566 7.634C27.0566 7.964 27.1153 8.27933 27.2326 8.58C27.3573 8.88067 27.537 9.13 27.7716 9.328C28.0136 9.51867 28.3143 9.614 28.6736 9.614Z" fill="var(--fill-0, white)"/>
<path id="Vector_16" d="M18.3344 4.609C18.7011 4.609 19.0054 4.66767 19.2474 4.785C19.4968 4.90233 19.6948 5.038 19.8414 5.192C19.9881 5.346 20.0944 5.478 20.1604 5.588H20.2264V4.719H21.4804V10.549H20.2264V9.68H20.1604C20.0944 9.79 19.9881 9.922 19.8414 10.076C19.6948 10.23 19.4968 10.3657 19.2474 10.483C19.0054 10.6003 18.7011 10.659 18.3344 10.659C17.8944 10.659 17.5094 10.5747 17.1794 10.406C16.8568 10.23 16.5854 9.999 16.3654 9.713C16.1454 9.41967 15.9804 9.09333 15.8704 8.734C15.7678 8.37467 15.7164 8.008 15.7164 7.634C15.7164 7.26 15.7678 6.89333 15.8704 6.534C15.9804 6.17467 16.1454 5.852 16.3654 5.566C16.5854 5.27267 16.8568 5.04167 17.1794 4.873C17.5094 4.697 17.8944 4.609 18.3344 4.609ZM18.6094 5.654C18.2501 5.654 17.9494 5.753 17.7074 5.951C17.4654 6.14167 17.2821 6.38733 17.1574 6.688C17.0401 6.98867 16.9814 7.304 16.9814 7.634C16.9814 7.964 17.0401 8.27933 17.1574 8.58C17.2821 8.88067 17.4654 9.13 17.7074 9.328C17.9494 9.51867 18.2501 9.614 18.6094 9.614C18.9688 9.614 19.2658 9.51867 19.5004 9.328C19.7424 9.13 19.9221 8.88067 20.0394 8.58C20.1641 8.27933 20.2264 7.964 20.2264 7.634C20.2264 7.304 20.1641 6.98867 20.0394 6.688C19.9221 6.38733 19.7424 6.14167 19.5004 5.951C19.2658 5.753 18.9688 5.654 18.6094 5.654Z" fill="var(--fill-0, white)"/>
<path id="Vector_17" d="M11.0012 10.659C10.4145 10.659 9.9562 10.4757 9.6262 10.109C9.2962 9.74233 9.1312 9.25467 9.1312 8.646V4.719H10.3852V8.492C10.3852 8.844 10.4769 9.119 10.6602 9.317C10.8509 9.50767 11.1075 9.603 11.4302 9.603C11.7455 9.603 11.9985 9.52233 12.1892 9.361C12.3799 9.19967 12.5155 8.99433 12.5962 8.745C12.6842 8.48833 12.7282 8.22433 12.7282 7.953V4.719H13.7072C14.0005 4.719 14.1472 4.56867 14.1472 4.268V3.575H15.2032V4.29C15.2032 4.64933 15.1079 4.93167 14.9172 5.137C14.7339 5.34233 14.4589 5.445 14.0922 5.445H13.9822V10.549H12.7282V9.713H12.6622C12.6035 9.823 12.5082 9.955 12.3762 10.109C12.2515 10.2557 12.0755 10.384 11.8482 10.494C11.6282 10.604 11.3459 10.659 11.0012 10.659Z" fill="var(--fill-0, white)"/>
<path id="Vector_18" d="M1.034 10.549V7.029H0V5.929H1.034V2.409H3.817C4.477 2.409 5.049 2.52633 5.533 2.761C6.02433 2.98833 6.43133 3.29633 6.754 3.685C7.084 4.07367 7.32967 4.51 7.491 4.994C7.65967 5.478 7.744 5.973 7.744 6.479C7.744 6.985 7.65967 7.48 7.491 7.964C7.32967 8.448 7.084 8.88433 6.754 9.273C6.43133 9.66167 6.02433 9.97333 5.533 10.208C5.049 10.4353 4.477 10.549 3.817 10.549H1.034ZM3.971 7.029H2.321V9.416H3.762C4.21667 9.416 4.61267 9.33533 4.95 9.174C5.28733 9.00533 5.566 8.78167 5.786 8.503C6.01333 8.217 6.182 7.90167 6.292 7.557C6.402 7.205 6.457 6.84567 6.457 6.479C6.457 6.11233 6.402 5.753 6.292 5.401C6.182 5.049 6.01333 4.73367 5.786 4.455C5.566 4.17633 5.28733 3.95267 4.95 3.784C4.61267 3.61533 4.21667 3.531 3.762 3.531H2.321V5.929H3.971V7.029Z" fill="var(--fill-0, white)"/>
</g>
</svg>
