<svg preserveAspectRatio="xMidYMid meet" width="100%" height="100%" overflow="visible" style="display: block;" viewBox="0 0 70 67.4998" fill="none" xmlns="http://www.w3.org/2000/svg">
<path id="Vector" fill-rule="evenodd" clip-rule="evenodd" d="M39.0958 25.586C39.3598 27.2675 40.9254 28.4148 42.5926 28.1485L67.1516 24.2251L66.3816 19.3224C66.1176 17.6409 64.5528 16.4937 62.8848 16.7599L46.2057 19.4246L43.5637 2.60086C43.299 0.919348 41.7341 -0.227931 40.0669 0.0384041L35.2055 0.81494L39.0958 25.586ZM43.9411 40.3027C43.1747 38.7857 43.7721 36.9294 45.2763 36.1565L67.4317 24.7705L69.6664 29.1932C70.4327 30.7102 69.8338 32.5665 68.3304 33.3395L53.2835 41.0725L60.9506 56.2493C61.7162 57.7662 61.1181 59.6225 59.6146 60.3954L55.2294 62.6489L43.9411 40.3027ZM32.897 45.3526C34.0904 44.1488 36.0253 44.1488 37.2194 45.3526L54.8016 63.0868L51.3215 66.597C50.1281 67.8007 48.1925 67.8007 46.9991 66.597L35.0578 54.5523L23.1165 66.5963C21.9231 67.8007 19.9882 67.8007 18.7941 66.5963L15.3148 63.0867L32.897 45.3526ZM30.7149 25.6864C30.4517 27.3679 28.8853 28.5152 27.2188 28.2489L2.65911 24.3254L3.42915 19.4228C3.69313 17.7413 5.25945 16.5939 6.92597 16.8603L23.6057 19.5249L26.2477 2.70134C26.5117 1.01976 28.0773 -0.127511 29.7446 0.138817L34.6052 0.915341L30.7149 25.6864ZM26.0591 40.4646C26.8247 38.9477 26.2265 37.0914 24.7223 36.3183L2.56771 24.9324L0.333746 29.3552C-0.432602 30.8721 0.165579 32.7284 1.66976 33.5014L16.7159 41.2343L9.04951 56.4112C8.28316 57.9281 8.88061 59.7844 10.3855 60.5573L14.7701 62.8108L26.0591 40.4646ZM34.9993 41.5478C38.5137 41.5478 41.3627 38.686 41.3627 35.1557C41.3627 31.6256 38.5137 28.7637 34.9993 28.7637C31.4849 28.7637 28.636 31.6256 28.636 35.1557C28.636 38.686 31.4849 41.5478 34.9993 41.5478Z" fill="var(--fill-0, #FFB200)"/>
</svg>
