<svg preserveAspectRatio="none" width="100%" height="100%" overflow="visible" style="display: block;" viewBox="0 0 141.194 52.397" fill="none" xmlns="http://www.w3.org/2000/svg">
<g id="Logo">
<path id="Icon" fill-rule="evenodd" clip-rule="evenodd" d="M132.594 7.11994C132.668 7.58788 133.103 7.90713 133.567 7.83302L140.401 6.74124L140.187 5.37696C140.114 4.90901 139.678 4.58978 139.214 4.66387L134.573 5.40538L133.837 0.723755C133.764 0.255832 133.328 -0.0634275 132.864 0.0106869L131.511 0.226778L132.594 7.11994ZM133.942 11.2152C133.729 10.7931 133.895 10.2765 134.314 10.0614L140.479 6.89303L141.101 8.12374C141.314 8.54588 141.148 9.06246 140.729 9.27754L136.542 11.4295L138.676 15.6528C138.889 16.0749 138.722 16.5915 138.304 16.8065L137.084 17.4336L133.942 11.2152ZM130.869 12.6205C131.201 12.2855 131.74 12.2855 132.072 12.6205L136.965 17.5555L135.996 18.5323C135.664 18.8673 135.125 18.8673 134.793 18.5323L131.47 15.1805L128.147 18.5321C127.815 18.8673 127.277 18.8673 126.945 18.5321L125.976 17.5555L130.869 12.6205ZM130.262 7.14788C130.189 7.61582 129.753 7.93507 129.289 7.86096L122.455 6.76914L122.669 5.4049C122.742 4.93695 123.178 4.61768 123.642 4.69179L128.284 5.4333L129.019 0.751717C129.092 0.283773 129.528 -0.0354833 129.992 0.0386292L131.344 0.254717L130.262 7.14788ZM128.966 11.2603C129.179 10.8382 129.013 10.3216 128.594 10.1065L122.429 6.93806L121.808 8.16882C121.594 8.59093 121.761 9.10749 122.179 9.3226L126.366 11.4745L124.233 15.6978C124.02 16.1199 124.186 16.6365 124.605 16.8516L125.825 17.4787L128.966 11.2603ZM131.454 11.5617C132.432 11.5617 133.225 10.7653 133.225 9.78297C133.225 8.80063 132.432 8.00424 131.454 8.00424C130.476 8.00424 129.683 8.80063 129.683 9.78297C129.683 10.7653 130.476 11.5617 131.454 11.5617Z" fill="var(--fill-0, white)"/>
<g id="ViGen">
<path id="Vector_2" d="M109.552 51.8295V28.1842H115.417L115.795 32.5349V51.8295H109.552ZM125.206 51.8295V39.7232H131.448V51.8295H125.206ZM125.206 39.7232C125.206 38.1152 125.017 36.8699 124.638 35.9871C124.291 35.1044 123.787 34.4738 123.125 34.0955C122.463 33.6857 121.69 33.4808 120.808 33.4808C119.2 33.4492 117.954 33.9378 117.072 34.9467C116.22 35.9556 115.795 37.4531 115.795 39.4393H113.714C113.714 36.9173 114.077 34.7892 114.802 33.0551C115.558 31.2896 116.599 29.9496 117.923 29.0354C119.279 28.0895 120.855 27.6166 122.652 27.6166C124.512 27.6166 126.104 27.9951 127.428 28.7517C128.752 29.5083 129.761 30.6905 130.455 32.2985C131.148 33.8749 131.48 35.924 131.448 38.4463V39.7232H125.206Z" fill="var(--fill-0, white)"/>
<path id="Vector_3" d="M94.0548 52.397C91.7218 52.397 89.6568 51.8767 87.8598 50.8365C86.0628 49.7645 84.644 48.2984 83.6036 46.4383C82.5947 44.5782 82.0903 42.4344 82.0903 40.0068C82.0903 37.5792 82.6104 35.4355 83.6508 33.5754C84.7228 31.7153 86.1731 30.265 88.0016 29.2246C89.8617 28.1526 91.9898 27.6166 94.3858 27.6166C96.4667 27.6166 98.374 28.1685 100.108 29.2718C101.874 30.3438 103.276 31.9359 104.317 34.0483C105.389 36.129 105.925 38.6669 105.925 41.662H88.0016L88.5691 41.0945C88.5691 42.2611 88.8528 43.2856 89.4203 44.1684C90.0194 45.0196 90.776 45.6817 91.6902 46.1546C92.6361 46.596 93.6449 46.8168 94.7169 46.8168C96.0095 46.8168 97.0656 46.5488 97.8854 46.0128C98.7051 45.4453 99.3355 44.7202 99.7771 43.8373L105.357 46.0128C104.695 47.3369 103.828 48.4876 102.756 49.465C101.716 50.4108 100.471 51.1358 99.0203 51.6403C97.57 52.1447 95.9149 52.397 94.0548 52.397ZM88.9002 37.5951L88.3327 37.0276H99.7297L99.2095 37.5951C99.2095 36.46 98.9415 35.5614 98.4056 34.8995C97.8696 34.2058 97.2074 33.7013 96.4193 33.3861C95.6627 33.0709 94.9218 32.9132 94.1966 32.9132C93.4716 32.9132 92.6991 33.0709 91.8795 33.3861C91.0598 33.7013 90.3505 34.2058 89.7514 34.8995C89.1839 35.5614 88.9002 36.46 88.9002 37.5951Z" fill="var(--fill-0, white)"/>
<path id="Vector_4" d="M64.2901 52.397C60.9167 52.397 57.9217 51.6718 55.3048 50.2215C52.7197 48.7397 50.6861 46.7222 49.2045 44.1684C47.7227 41.5833 46.9818 38.6197 46.9818 35.2778C46.9818 31.9359 47.7227 28.9881 49.2045 26.4344C50.6861 23.8493 52.7197 21.8315 55.3048 20.3812C57.9217 18.8995 60.9167 18.1586 64.2901 18.1586C66.3079 18.1586 68.168 18.4581 69.8703 19.0571C71.5729 19.6561 73.0704 20.4915 74.363 21.5635C75.6871 22.6039 76.7906 23.8018 77.6733 25.1575L72.3767 28.4678C71.8409 27.6166 71.1316 26.8601 70.2486 26.1979C69.3974 25.536 68.4516 25.0156 67.4114 24.6374C66.371 24.2591 65.3305 24.0698 64.2901 24.0698C62.2094 24.0698 60.365 24.5586 58.757 25.536C57.1493 26.4818 55.8881 27.79 54.9738 29.4611C54.0595 31.1319 53.6025 33.0709 53.6025 35.2778C53.6025 37.4531 54.0438 39.3921 54.9266 41.0945C55.8408 42.7971 57.1177 44.1368 58.757 45.1142C60.3965 46.06 62.2882 46.5329 64.4319 46.5329C66.103 46.5329 67.5848 46.2018 68.8773 45.5399C70.2014 44.8777 71.2419 43.9478 71.9984 42.7497C72.7552 41.5517 73.1335 40.1645 73.1335 38.5881L79.2813 37.6423C79.2813 40.7634 78.635 43.4275 77.3422 45.6345C76.0812 47.8413 74.3157 49.5281 72.0458 50.6945C69.8073 51.8295 67.2221 52.397 64.2901 52.397ZM65.3777 39.1556V34.0955H79.2813V38.1152L75.7817 39.1556H65.3777Z" fill="var(--fill-0, white)"/>
<path id="Vector_5" d="M36.0236 51.8295V28.1842H42.266V51.8295H36.0236ZM39.1447 24.3537C38.1988 24.3537 37.3635 24.0067 36.6383 23.3133C35.9133 22.588 35.5507 21.7368 35.5507 20.7595C35.5507 19.7822 35.9133 18.9467 36.6383 18.2532C37.3635 17.528 38.1988 17.1655 39.1447 17.1655C40.122 17.1655 40.9575 17.528 41.6512 18.2532C42.3763 18.9467 42.7389 19.7822 42.7389 20.7595C42.7389 21.7368 42.3763 22.588 41.6512 23.3133C40.9575 24.0067 40.122 24.3537 39.1447 24.3537Z" fill="var(--fill-0, white)"/>
<path id="Vector_6" d="M13.9034 51.8295L26.4354 18.7261H33.3872L20.2404 51.8295H13.9034ZM13.1941 51.8295L0 18.7261H6.95173L19.531 51.8295H13.1941Z" fill="var(--fill-0, white)"/>
</g>
</g>
</svg>
