<svg preserveAspectRatio="xMidYMid meet" width="100%" height="100%" overflow="visible" style="display: block;" viewBox="0 0 22.5268 20.0041" fill="none" xmlns="http://www.w3.org/2000/svg">
<path id="Solid" fill-rule="evenodd" clip-rule="evenodd" d="M12.076 0.17252C11.5587 -0.0575066 10.9681 -0.0575066 10.4508 0.17252C10.0513 0.350172 9.79174 0.66309 9.61114 0.918065C9.43357 1.16876 9.24347 1.49718 9.03439 1.85837L0.767238 16.138C0.557328 16.5005 0.366574 16.8299 0.237234 17.1095C0.105784 17.3937 -0.0368205 17.7756 0.00862849 18.2115C0.0674393 18.7756 0.36298 19.2882 0.821695 19.6217C1.17619 19.8795 1.57819 19.9475 1.88995 19.9761C2.19669 20.0042 2.57735 20.0042 2.99624 20.0041H19.5305C19.9494 20.0042 20.3301 20.0042 20.6369 19.9761C20.9486 19.9475 21.3506 19.8795 21.7051 19.6217C22.1638 19.2882 22.4594 18.7756 22.5182 18.2115C22.5636 17.7756 22.421 17.3937 22.2896 17.1095C22.1602 16.83 21.9695 16.5006 21.7596 16.1381L13.4924 1.85834C13.2833 1.49716 13.0932 1.16874 12.9157 0.918064C12.7351 0.663089 12.4755 0.350172 12.076 0.17252ZM12.2634 7.50415C12.2634 6.95187 11.8157 6.50415 11.2634 6.50415C10.7111 6.50415 10.2634 6.95187 10.2634 7.50415V11.5042C10.2634 12.0564 10.7111 12.5042 11.2634 12.5042C11.8157 12.5042 12.2634 12.0564 12.2634 11.5042V7.50415ZM11.2634 14.5042C10.7111 14.5042 10.2634 14.9519 10.2634 15.5042C10.2634 16.0564 10.7111 16.5042 11.2634 16.5042H11.2734C11.8257 16.5042 12.2734 16.0564 12.2734 15.5042C12.2734 14.9519 11.8257 14.5042 11.2734 14.5042H11.2634Z" fill="var(--fill-0, #FDA29B)"/>
</svg>
