<svg preserveAspectRatio="none" width="100%" height="100%" overflow="visible" style="display: block;" viewBox="0 0 17.9289 17.9289" fill="none" xmlns="http://www.w3.org/2000/svg">
<path id="Icon" d="M12.5 5.42893L0.833333 17.0956M14.1667 11.2623H6.66667M4.66667 14.5956H10.281C10.4849 14.5956 10.5868 14.5956 10.6827 14.5726C10.7677 14.5522 10.849 14.5185 10.9236 14.4728C11.0077 14.4213 11.0797 14.3492 11.2239 14.2051L15.4167 10.0123C15.6158 9.81313 15.7154 9.71356 15.7955 9.62541C17.529 7.71837 17.529 4.80616 15.7955 2.89912C15.7154 2.81097 15.6158 2.7114 15.4167 2.51227C15.2175 2.31313 15.118 2.21356 15.0298 2.13343C13.1228 0.399967 10.2106 0.399967 8.30352 2.13343C8.21537 2.21356 8.1158 2.31313 7.91667 2.51226L3.72386 6.70508C3.57973 6.8492 3.50767 6.92126 3.45613 7.00536C3.41044 7.07992 3.37677 7.16121 3.35636 7.24624C3.33333 7.34215 3.33333 7.44406 3.33333 7.64788V13.2623C3.33333 13.729 3.33333 13.9623 3.42416 14.1406C3.50406 14.2974 3.63154 14.4249 3.78834 14.5048C3.9666 14.5956 4.19996 14.5956 4.66667 14.5956Z" stroke="var(--stroke-0, white)" stroke-width="1.66667" stroke-linecap="round" stroke-linejoin="round"/>
</svg>
