<svg preserveAspectRatio="none" width="100%" height="100%" overflow="visible" style="display: block;" viewBox="0 0 17.8818 18.3333" fill="none" xmlns="http://www.w3.org/2000/svg">
<path id="Icon" d="M12.8818 0.833335V10M17.0484 7.33333V3.5C17.0484 2.56658 17.0484 2.09987 16.8668 1.74335C16.707 1.42975 16.452 1.17478 16.1384 1.01499C15.7819 0.833335 15.3152 0.833335 14.3818 0.833335H5.48011C4.26221 0.833335 3.65325 0.833335 3.16142 1.0562C2.72793 1.25262 2.35951 1.56869 2.09946 1.96726C1.80441 2.4195 1.71181 3.02137 1.52662 4.2251L1.09072 7.05844C0.846468 8.64609 0.72434 9.43992 0.959934 10.0576C1.16672 10.5997 1.55564 11.0531 2.06003 11.3399C2.63471 11.6667 3.43787 11.6667 5.04421 11.6667H5.7151C6.18181 11.6667 6.41516 11.6667 6.59342 11.7575C6.75023 11.8374 6.87771 11.9649 6.9576 12.1217C7.04843 12.2999 7.04843 12.5333 7.04843 13V15.4451C7.04843 16.58 7.96843 17.5 9.1033 17.5C9.37398 17.5 9.61928 17.3406 9.72922 17.0932L12.5298 10.7918C12.6572 10.5052 12.7209 10.3619 12.8216 10.2568C12.9106 10.1639 13.0199 10.0929 13.1409 10.0493C13.2778 10 13.4346 10 13.7483 10H14.3818C15.3152 10 15.7819 10 16.1384 9.81835C16.452 9.65856 16.707 9.40359 16.8668 9.08999C17.0484 8.73347 17.0484 8.26676 17.0484 7.33333Z" stroke="var(--stroke-0, #FCFCFD)" stroke-width="1.66667" stroke-linecap="round" stroke-linejoin="round"/>
</svg>
