<svg width="20" height="20" viewBox="0 0 20 18" fill="none" xmlns="http://www.w3.org/2000/svg">
<path d="M8.93334 13.1946L10.7333 14.9604C10.9106 15.1343 11.1211 15.2723 11.3527 15.3664C11.5844 15.4605 11.8326 15.509 12.0833 15.509C12.3341 15.509 12.5823 15.4605 12.814 15.3664C13.0456 15.2723 13.2561 15.1343 13.4333 14.9604C13.6106 14.7865 13.7513 14.58 13.8472 14.3528C13.9431 14.1255 13.9925 13.882 13.9925 13.636C13.9925 13.3901 13.9431 13.1465 13.8472 12.9193C13.7513 12.692 13.6106 12.4856 13.4333 12.3116M11.6333 10.5458L13.8833 12.7531C14.2414 13.1044 14.727 13.3017 15.2333 13.3017C15.7397 13.3017 16.2253 13.1044 16.5833 12.7531C16.9414 12.4019 17.1425 11.9255 17.1425 11.4287C17.1425 10.932 16.9414 10.4556 16.5833 10.1044L13.0913 6.67867C12.5851 6.18265 11.8988 5.90403 11.1833 5.90403C10.4678 5.90403 9.78157 6.18265 9.27532 6.67867L8.48332 7.45563C8.12528 7.80688 7.63967 8.00421 7.13332 8.00421C6.62697 8.00421 6.14136 7.80688 5.78332 7.45563C5.42528 7.10439 5.22413 6.628 5.22413 6.13126C5.22413 5.63453 5.42528 5.15814 5.78332 4.80689L8.31232 2.3259C9.13334 1.52258 10.204 1.01085 11.3549 0.871718C12.5058 0.732589 13.6711 0.974011 14.6663 1.55777L15.0893 1.80498C15.4725 2.03188 15.9282 2.11057 16.3673 2.02571L17.9333 1.71669M17.9333 0.833763L18.8333 10.5458H17.0333M1.73334 0.833763L0.833338 10.5458L6.68334 16.2848C7.04138 16.636 7.52699 16.8333 8.03334 16.8333C8.53969 16.8333 9.0253 16.636 9.38334 16.2848C9.74138 15.9335 9.94253 15.4571 9.94253 14.9604C9.94253 14.4637 9.74138 13.9873 9.38334 13.636M1.73334 1.71668H8.93334" stroke="white" stroke-width="1.66667" stroke-linecap="round" stroke-linejoin="round"/>
</svg>
