<svg preserveAspectRatio="none" width="100%" height="100%" overflow="visible" style="display: block;" viewBox="0 0 14.6667 14.6667" fill="none" xmlns="http://www.w3.org/2000/svg">
<path id="Icon" d="M5.39333 5.33333C5.55007 4.88778 5.85943 4.51207 6.26664 4.27276C6.67384 4.03344 7.1526 3.94596 7.61812 4.02581C8.08364 4.10566 8.50588 4.34768 8.81005 4.70902C9.11422 5.07035 9.2807 5.52768 9.28 6C9.28 7.33333 7.28 8 7.28 8M7.33333 10.6667H7.34M14 7.33333C14 11.0152 11.0152 14 7.33333 14C3.65143 14 0.666667 11.0152 0.666667 7.33333C0.666667 3.65143 3.65143 0.666667 7.33333 0.666667C11.0152 0.666667 14 3.65143 14 7.33333Z" stroke="var(--stroke-0, #98A2B3)" stroke-width="1.33333" stroke-linecap="round" stroke-linejoin="round"/>
</svg>
