<svg preserveAspectRatio="none" width="100%" height="100%" overflow="visible" style="display: block;" viewBox="0 0 16.6667 16.6667" fill="none" xmlns="http://www.w3.org/2000/svg">
<path id="Icon" d="M11.8333 15.8333H4.10948C3.60463 15.8333 3.35221 15.8333 3.23532 15.7335C3.1339 15.6469 3.08008 15.5169 3.09054 15.384C3.1026 15.2307 3.28109 15.0522 3.63807 14.6953L10.7239 7.60948C11.0539 7.27947 11.2189 7.11445 11.4092 7.05263C11.5765 6.99825 11.7568 6.99825 11.9242 7.05263C12.1145 7.11446 12.2795 7.27946 12.6095 7.60948L15.8333 10.8333V11.8333M11.8333 15.8333C13.2335 15.8333 13.9335 15.8333 14.4683 15.5608C14.9387 15.3212 15.3212 14.9387 15.5608 14.4683C15.8333 13.9335 15.8333 13.2335 15.8333 11.8333M11.8333 15.8333H4.83333C3.4332 15.8333 2.73314 15.8333 2.19836 15.5608C1.72795 15.3212 1.3455 14.9387 1.10582 14.4683C0.833334 13.9335 0.833334 13.2335 0.833334 11.8333V4.83333C0.833334 3.4332 0.833334 2.73314 1.10582 2.19836C1.3455 1.72795 1.72795 1.3455 2.19836 1.10582C2.73314 0.833334 3.4332 0.833334 4.83333 0.833334H11.8333C13.2335 0.833334 13.9335 0.833334 14.4683 1.10582C14.9387 1.3455 15.3212 1.72795 15.5608 2.19836C15.8333 2.73314 15.8333 3.4332 15.8333 4.83333V11.8333M7.08333 5.41667C7.08333 6.33714 6.33714 7.08333 5.41667 7.08333C4.49619 7.08333 3.75 6.33714 3.75 5.41667C3.75 4.49619 4.49619 3.75 5.41667 3.75C6.33714 3.75 7.08333 4.49619 7.08333 5.41667Z" stroke="var(--stroke-0, white)" stroke-width="1.66667" stroke-linecap="round" stroke-linejoin="round"/>
</svg>
