<svg preserveAspectRatio="none" width="100%" height="100%" overflow="visible" style="display: block;" viewBox="0 0 18.3333 18.3333" fill="none" xmlns="http://www.w3.org/2000/svg">
<path id="Icon" d="M7.5 13.8822V15.8333C7.5 16.7538 8.24619 17.5 9.16667 17.5C10.0871 17.5 10.8333 16.7538 10.8333 15.8333V13.8822M9.16667 0.833333V1.66667M1.66667 9.16667H0.833333M3.75 3.75L3.24992 3.24992M14.5833 3.75L15.0835 3.24992M17.5 9.16667H16.6667M14.1667 9.16667C14.1667 11.9281 11.9281 14.1667 9.16667 14.1667C6.40524 14.1667 4.16667 11.9281 4.16667 9.16667C4.16667 6.40524 6.40524 4.16667 9.16667 4.16667C11.9281 4.16667 14.1667 6.40524 14.1667 9.16667Z" stroke="var(--stroke-0, white)" stroke-width="1.66667" stroke-linecap="round" stroke-linejoin="round"/>
</svg>
