<svg preserveAspectRatio="none" width="100%" height="100%" overflow="visible" style="display: block;" viewBox="0 0 17.1766 15.8367" fill="none" xmlns="http://www.w3.org/2000/svg">
<path id="Icon" d="M16.3416 7.91833C16.3416 11.8304 13.1703 15.0017 9.2583 15.0017C8.36098 15.0017 7.50264 14.8348 6.71259 14.5304C6.56815 14.4748 6.49593 14.447 6.43849 14.4337C6.382 14.4207 6.34111 14.4153 6.28318 14.4131C6.22428 14.4108 6.15967 14.4175 6.03043 14.4308L1.76291 14.872C1.35605 14.914 1.15261 14.9351 1.03261 14.8619C0.928087 14.7981 0.856896 14.6916 0.837946 14.5706C0.816188 14.4318 0.913402 14.2518 1.10783 13.892L2.47087 11.369C2.58313 11.1612 2.63925 11.0574 2.66468 10.9575C2.68978 10.8588 2.69585 10.7877 2.68782 10.6862C2.67969 10.5834 2.63461 10.4497 2.54444 10.1822C2.30484 9.47133 2.17496 8.71 2.17496 7.91833C2.17496 4.00632 5.34628 0.835 9.2583 0.835C13.1703 0.835 16.3416 4.00632 16.3416 7.91833Z" stroke="var(--stroke-0, white)" stroke-width="1.67" stroke-linecap="round" stroke-linejoin="round"/>
</svg>
