<svg preserveAspectRatio="none" width="100%" height="100%" overflow="visible" style="display: block;" viewBox="0 0 18.2219 17.5033" fill="none" xmlns="http://www.w3.org/2000/svg">
<path id="Icon" d="M1.19428 10.0017H6.19428M12.0276 10.0017H17.0276M9.11095 5.00167V16.6683M9.11095 5.00167C10.2615 5.00167 11.1943 4.06893 11.1943 2.91833M9.11095 5.00167C7.96035 5.00167 7.02761 4.06893 7.02761 2.91833M2.44428 16.6683L15.7776 16.6683M2.44428 2.91834L7.02761 2.91833M7.02761 2.91833C7.02761 1.76774 7.96035 0.835 9.11095 0.835C10.2615 0.835 11.1943 1.76774 11.1943 2.91833M11.1943 2.91833L15.7776 2.91833M6.51131 11.1153C6.1774 12.3938 5.0427 13.335 3.69428 13.335C2.34586 13.335 1.21116 12.3938 0.877249 11.1153C0.849966 11.0108 0.836324 10.9586 0.835009 10.7499C0.834202 10.622 0.881749 10.327 0.92271 10.2058C0.989535 10.008 1.06187 9.89643 1.20654 9.67323L3.69428 5.835L6.18202 9.67323C6.32669 9.89643 6.39903 10.008 6.46585 10.2058C6.50681 10.327 6.55436 10.622 6.55355 10.7499C6.55224 10.9586 6.5386 11.0108 6.51131 11.1153ZM17.3446 11.1153C17.0107 12.3938 15.876 13.335 14.5276 13.335C13.1792 13.335 12.0445 12.3938 11.7106 11.1153C11.6833 11.0108 11.6697 10.9586 11.6683 10.7499C11.6675 10.622 11.7151 10.327 11.756 10.2058C11.8229 10.008 11.8952 9.89643 12.0399 9.67323L14.5276 5.835L17.0154 9.67323C17.16 9.89643 17.2324 10.008 17.2992 10.2058C17.3401 10.327 17.3877 10.622 17.3869 10.7499C17.3856 10.9586 17.3719 11.0108 17.3446 11.1153Z" stroke="var(--stroke-0, white)" stroke-width="1.67" stroke-linecap="round" stroke-linejoin="round"/>
</svg>
