<svg preserveAspectRatio="none" width="100%" height="100%" overflow="visible" style="display: block;" viewBox="0 0 17 17" fill="none" xmlns="http://www.w3.org/2000/svg">
<path id="Icon" d="M6 1V16M5 1H12C13.4001 1 14.1002 1 14.635 1.27248C15.1054 1.51217 15.4878 1.89462 15.7275 2.36502C16 2.8998 16 3.59987 16 5V12C16 13.4001 16 14.1002 15.7275 14.635C15.4878 15.1054 15.1054 15.4878 14.635 15.7275C14.1002 16 13.4001 16 12 16H5C3.59987 16 2.8998 16 2.36502 15.7275C1.89462 15.4878 1.51217 15.1054 1.27248 14.635C1 14.1002 1 13.4001 1 12V5C1 3.59987 1 2.8998 1.27248 2.36502C1.51217 1.89462 1.89462 1.51217 2.36502 1.27248C2.8998 1 3.59987 1 5 1Z" stroke="var(--stroke-0, white)" stroke-width="2" stroke-linecap="round" stroke-linejoin="round"/>
</svg>
