<svg preserveAspectRatio="none" width="100%" height="100%" overflow="visible" style="display: block;" viewBox="0 0 27.8021 26.6302" fill="none" xmlns="http://www.w3.org/2000/svg">
<path id="Solid" d="M14.7618 0.194701C14.2174 -0.0649002 13.5848 -0.0649002 13.0403 0.194701C12.5696 0.41912 12.3101 0.808771 12.1792 1.02253C12.044 1.24352 11.9051 1.52502 11.7697 1.79941L8.89539 7.62245L2.46599 8.5622C2.16333 8.60638 1.85279 8.6517 1.6009 8.71227C1.35722 8.77087 0.906675 8.8976 0.548128 9.27606C0.133339 9.71388 -0.0617305 10.3155 0.0172301 10.9134C0.0854846 11.4303 0.375944 11.7973 0.538878 11.9877C0.707301 12.1845 0.932167 12.4035 1.15132 12.6168L5.80171 17.1463L4.70443 23.544C4.65263 23.8457 4.59949 24.1551 4.57903 24.4135C4.55924 24.6634 4.54011 25.1312 4.78905 25.5895C5.07699 26.1197 5.58883 26.4915 6.18199 26.6014C6.69479 26.6965 7.13384 26.5337 7.36535 26.4376C7.60475 26.3383 7.88264 26.1921 8.15352 26.0496L13.9011 23.027L19.6487 26.0496C19.9195 26.1921 20.1974 26.3383 20.4368 26.4376C20.6683 26.5337 21.1074 26.6965 21.6202 26.6014C22.2133 26.4915 22.7252 26.1197 23.0131 25.5895C23.262 25.1312 23.2429 24.6634 23.2231 24.4135C23.2027 24.1552 23.1495 23.8457 23.0977 23.5441L22.0004 17.1463L26.6509 12.6168C26.87 12.4034 27.0949 12.1845 27.2633 11.9877C27.4262 11.7973 27.7167 11.4303 27.7849 10.9134C27.8639 10.3155 27.6688 9.71388 27.254 9.27606C26.8955 8.8976 26.4449 8.77087 26.2012 8.71227C25.9494 8.6517 25.6388 8.60637 25.3361 8.5622L18.9068 7.62245L16.0325 1.79951C15.8971 1.5251 15.7582 1.24353 15.6229 1.02253C15.492 0.80877 15.2325 0.41912 14.7618 0.194701Z" fill="var(--fill-0, #FFB200)"/>
</svg>
